<svg xmlns="http://www.w3.org/2000/svg" viewBox="0 0 800 500" role="img" aria-labelledby="title desc">
  <title id="title">Family hiking together</title>
  <desc id="desc">Stylized illustration of a family hiking on a trail with trees and mountains.</desc>
  <rect width="800" height="500" fill="#dff2f7"/>
  <rect y="320" width="800" height="180" fill="#8bc27a"/>
  <path d="M0 340 L150 210 L280 330 Z" fill="#7ea1bc"/>
  <path d="M180 340 L390 110 L580 340 Z" fill="#6689a5"/>
  <path d="M430 340 L620 170 L800 340 Z" fill="#86abc5"/>
  <circle cx="660" cy="95" r="42" fill="#ffd37b"/>
  <path d="M0 410 C170 350, 290 365, 430 418 S650 470, 800 420" fill="#c6975f"/>
  <g fill="#3f6e3e">
    <circle cx="110" cy="240" r="34"/>
    <rect x="103" y="240" width="14" height="60" fill="#75522e"/>
    <circle cx="720" cy="240" r="34"/>
    <rect x="713" y="240" width="14" height="60" fill="#75522e"/>
  </g>
  <g transform="translate(220 245)">
    <circle cx="0" cy="0" r="20" fill="#7b4c30"/>
    <rect x="-18" y="18" width="36" height="72" rx="16" fill="#0d6c63"/>
    <rect x="-15" y="88" width="10" height="54" rx="5" fill="#3b3b3b"/>
    <rect x="5" y="88" width="10" height="54" rx="5" fill="#3b3b3b"/>
  </g>
  <g transform="translate(320 225)">
    <circle cx="0" cy="0" r="22" fill="#c58a60"/>
    <rect x="-21" y="20" width="42" height="82" rx="18" fill="#d68a46"/>
    <rect x="-16" y="98" width="10" height="58" rx="5" fill="#36454f"/>
    <rect x="6" y="98" width="10" height="58" rx="5" fill="#36454f"/>
  </g>
  <g transform="translate(425 250)">
    <circle cx="0" cy="0" r="16" fill="#d8a37c"/>
    <rect x="-16" y="16" width="32" height="60" rx="14" fill="#8b3d67"/>
    <rect x="-11" y="72" width="8" height="42" rx="4" fill="#2f3b4f"/>
    <rect x="3" y="72" width="8" height="42" rx="4" fill="#2f3b4f"/>
  </g>
  <g transform="translate(500 240)">
    <circle cx="0" cy="0" r="18" fill="#8c5f43"/>
    <rect x="-18" y="18" width="36" height="66" rx="15" fill="#5b56c4"/>
    <rect x="-13" y="80" width="8" height="46" rx="4" fill="#313746"/>
    <rect x="5" y="80" width="8" height="46" rx="4" fill="#313746"/>
  </g>
  <g transform="translate(575 258)">
    <circle cx="0" cy="0" r="15" fill="#b77a52"/>
    <rect x="-15" y="15" width="30" height="54" rx="12" fill="#29a08f"/>
    <rect x="-10" y="65" width="7" height="40" rx="4" fill="#384250"/>
    <rect x="3" y="65" width="7" height="40" rx="4" fill="#384250"/>
  </g>
  <g transform="translate(640 332)">
    <ellipse cx="0" cy="18" rx="40" ry="24" fill="#d4aa70"/>
    <circle cx="28" cy="4" r="16" fill="#d4aa70"/>
    <circle cx="36" cy="-6" r="7" fill="#9b6b34"/>
    <circle cx="22" cy="-8" r="7" fill="#9b6b34"/>
  </g>
</svg>
