<svg xmlns="http://www.w3.org/2000/svg" viewBox="0 0 800 500" role="img" aria-labelledby="title desc">
  <title id="title">Family at a community festival</title>
  <desc id="desc">Stylized illustration of a family walking together at an outdoor neighborhood festival.</desc>
  <rect width="800" height="500" fill="#eaf6ff"/>
  <rect y="350" width="800" height="150" fill="#b7d98f"/>
  <rect x="70" y="150" width="660" height="170" rx="20" fill="#fff7ef"/>
  <path d="M70 150 L130 100 L190 150 Z" fill="#d68a46"/>
  <path d="M190 150 L250 100 L310 150 Z" fill="#0d6c63"/>
  <path d="M310 150 L370 100 L430 150 Z" fill="#8b3d67"/>
  <path d="M430 150 L490 100 L550 150 Z" fill="#5b56c4"/>
  <path d="M550 150 L610 100 L670 150 Z" fill="#f2b54d"/>
  <g fill="#ffffff">
    <circle cx="155" cy="124" r="12"/>
    <circle cx="275" cy="124" r="12"/>
    <circle cx="395" cy="124" r="12"/>
    <circle cx="515" cy="124" r="12"/>
    <circle cx="635" cy="124" r="12"/>
  </g>
  <g transform="translate(210 260)">
    <circle cx="0" cy="0" r="22" fill="#7b4c30"/>
    <rect x="-22" y="22" width="44" height="90" rx="18" fill="#0d6c63"/>
  </g>
  <g transform="translate(320 242)">
    <circle cx="0" cy="0" r="24" fill="#c58a60"/>
    <rect x="-24" y="24" width="48" height="94" rx="20" fill="#d68a46"/>
  </g>
  <g transform="translate(440 274)">
    <circle cx="0" cy="0" r="18" fill="#d8a37c"/>
    <rect x="-18" y="18" width="36" height="74" rx="16" fill="#8b3d67"/>
  </g>
  <g transform="translate(530 258)">
    <circle cx="0" cy="0" r="20" fill="#8c5f43"/>
    <rect x="-20" y="20" width="40" height="82" rx="16" fill="#5b56c4"/>
  </g>
  <g transform="translate(615 282)">
    <circle cx="0" cy="0" r="16" fill="#b77a52"/>
    <rect x="-16" y="16" width="32" height="66" rx="14" fill="#29a08f"/>
  </g>
  <g transform="translate(135 360)">
    <circle cx="0" cy="0" r="30" fill="#d4aa70"/>
    <ellipse cx="-35" cy="18" rx="42" ry="22" fill="#d4aa70"/>
  </g>
</svg>
