<svg xmlns="http://www.w3.org/2000/svg" viewBox="0 0 800 500" role="img" aria-labelledby="title desc">
  <title id="title">Family cooking together</title>
  <desc id="desc">Stylized illustration of a family in a warm kitchen preparing food together.</desc>
  <rect width="800" height="500" fill="#fff3df"/>
  <rect y="330" width="800" height="170" fill="#e6bf90"/>
  <rect x="60" y="90" width="130" height="170" rx="10" fill="#f6d6a6"/>
  <rect x="610" y="90" width="130" height="170" rx="10" fill="#f6d6a6"/>
  <rect x="230" y="80" width="340" height="130" rx="14" fill="#fff8ef"/>
  <circle cx="310" cy="145" r="34" fill="#ffd37b"/>
  <rect x="180" y="280" width="440" height="28" rx="10" fill="#b47641"/>
  <rect x="210" y="308" width="24" height="92" fill="#94572f"/>
  <rect x="566" y="308" width="24" height="92" fill="#94572f"/>
  <ellipse cx="400" cy="290" rx="92" ry="28" fill="#3f4a59"/>
  <ellipse cx="400" cy="284" rx="72" ry="17" fill="#5b6779"/>
  <g transform="translate(220 210)">
    <circle cx="0" cy="0" r="22" fill="#7b4c30"/>
    <rect x="-22" y="22" width="44" height="86" rx="18" fill="#0d6c63"/>
  </g>
  <g transform="translate(320 190)">
    <circle cx="0" cy="0" r="24" fill="#c58a60"/>
    <rect x="-24" y="24" width="48" height="96" rx="20" fill="#d68a46"/>
  </g>
  <g transform="translate(435 220)">
    <circle cx="0" cy="0" r="18" fill="#d8a37c"/>
    <rect x="-18" y="18" width="36" height="70" rx="16" fill="#8b3d67"/>
  </g>
  <g transform="translate(515 208)">
    <circle cx="0" cy="0" r="20" fill="#8c5f43"/>
    <rect x="-20" y="20" width="40" height="78" rx="16" fill="#5b56c4"/>
  </g>
  <g transform="translate(585 228)">
    <circle cx="0" cy="0" r="16" fill="#b77a52"/>
    <rect x="-16" y="16" width="32" height="62" rx="14" fill="#29a08f"/>
  </g>
  <rect x="120" y="350" width="110" height="18" rx="9" fill="#f8e2b4"/>
  <circle cx="650" cy="372" r="30" fill="#d4aa70"/>
  <ellipse cx="610" cy="392" rx="44" ry="24" fill="#d4aa70"/>
</svg>
